<svg width="159" height="32" viewBox="0 0 159 32" fill="none" xmlns="http://www.w3.org/2000/svg">
<path d="M44.4474 25C44.144 25 43.8786 24.8957 43.651 24.6871C43.4424 24.4596 43.3381 24.1941 43.3381 23.8907V3.89422C43.3381 3.57185 43.4424 3.30637 43.651 3.09777C43.8596 2.88918 44.1251 2.78489 44.4474 2.78489H57.7879C58.1103 2.78489 58.3757 2.88918 58.5843 3.09777C58.7929 3.2874 58.8972 3.5434 58.8972 3.86578C58.8972 4.15022 58.7929 4.39674 58.5843 4.60533C58.3757 4.81392 58.1103 4.91822 57.7879 4.91822H45.5568V12.7689H54.4599C54.7823 12.7689 55.0477 12.8732 55.2563 13.0818C55.4649 13.2904 55.5692 13.5464 55.5692 13.8498C55.5692 14.1532 55.4649 14.4092 55.2563 14.6178C55.0477 14.8264 54.7823 14.9307 54.4599 14.9307H45.5568V23.8907C45.5568 24.1941 45.4525 24.4596 45.2439 24.6871C45.0353 24.8957 44.7698 25 44.4474 25ZM63.2492 25C62.5286 25 62.1683 24.6397 62.1683 23.9191V10.5218C62.1683 9.80118 62.5286 9.44089 63.2492 9.44089C63.9698 9.44089 64.3301 9.80118 64.3301 10.5218V11.7449C64.899 10.9864 65.6006 10.389 66.435 9.95289C67.2694 9.49778 68.1891 9.27022 69.1941 9.27022C70.0664 9.27022 70.7396 9.39348 71.2137 9.64C71.6877 9.88652 71.8679 10.2468 71.7541 10.7209C71.6593 11.157 71.4317 11.3846 71.0715 11.4036C70.7301 11.4036 70.3224 11.3846 69.8483 11.3467C68.7864 11.2519 67.8383 11.3656 67.0039 11.688C66.1885 11.9914 65.5343 12.4655 65.0412 13.1102C64.5672 13.755 64.3301 14.523 64.3301 15.4142V23.9191C64.3301 24.6397 63.9698 25 63.2492 25ZM76.3339 25C75.9926 25 75.7176 24.9052 75.509 24.7156C75.3194 24.507 75.2246 24.232 75.2246 23.8907V10.5502C75.2246 10.2089 75.3194 9.94341 75.509 9.75378C75.7176 9.54518 75.9926 9.44089 76.3339 9.44089C76.6563 9.44089 76.9123 9.54518 77.1019 9.75378C77.3105 9.94341 77.4148 10.2089 77.4148 10.5502V23.8907C77.4148 24.232 77.3105 24.507 77.1019 24.7156C76.9123 24.9052 76.6563 25 76.3339 25ZM76.3054 6.48266C75.8883 6.48266 75.528 6.33096 75.2246 6.02755C74.9211 5.72415 74.7694 5.35437 74.7694 4.91822C74.7694 4.44415 74.9211 4.07437 75.2246 3.80889C75.5469 3.52444 75.9167 3.38222 76.3339 3.38222C76.7321 3.38222 77.0829 3.52444 77.3863 3.80889C77.7087 4.07437 77.8699 4.44415 77.8699 4.91822C77.8699 5.35437 77.7182 5.72415 77.4148 6.02755C77.1114 6.33096 76.7416 6.48266 76.3054 6.48266ZM89.6192 25.1422C88.0832 25.1422 86.7179 24.8104 85.5232 24.1467C84.3475 23.464 83.4183 22.5253 82.7357 21.3307C82.072 20.136 81.7401 18.7707 81.7401 17.2347C81.7401 15.6797 82.053 14.3144 82.6788 13.1387C83.3235 11.944 84.2053 11.0053 85.3241 10.3227C86.4429 9.64 87.7324 9.29866 89.1926 9.29866C90.6337 9.29866 91.8853 9.63052 92.9472 10.2942C94.0281 10.939 94.8625 11.8397 95.4503 12.9964C96.0382 14.1532 96.3321 15.4711 96.3321 16.9502C96.3321 17.2536 96.2373 17.5001 96.0477 17.6898C95.858 17.8604 95.6115 17.9458 95.3081 17.9458H83.8166C83.9303 18.9698 84.2432 19.88 84.7552 20.6764C85.2672 21.4539 85.9404 22.0702 86.7748 22.5253C87.6092 22.9615 88.5573 23.1796 89.6192 23.1796C90.3019 23.1796 90.9846 23.0658 91.6672 22.8382C92.3689 22.5917 92.9283 22.2883 93.3455 21.928C93.554 21.7573 93.7911 21.672 94.0566 21.672C94.322 21.653 94.5496 21.7194 94.7392 21.8711C94.9857 22.0987 95.109 22.3452 95.109 22.6107C95.128 22.8761 95.0237 23.1037 94.7961 23.2933C94.1703 23.8243 93.3739 24.2699 92.4068 24.6302C91.4397 24.9716 90.5105 25.1422 89.6192 25.1422ZM89.1926 11.2613C87.7324 11.2613 86.5283 11.7164 85.5801 12.6267C84.632 13.5179 84.0631 14.6841 83.8734 16.1253H94.2841C94.1324 14.6841 93.6015 13.5179 92.6912 12.6267C91.8 11.7164 90.6337 11.2613 89.1926 11.2613ZM100.72 25C100.379 25 100.104 24.9052 99.895 24.7156C99.7054 24.507 99.6106 24.2415 99.6106 23.9191V10.5502C99.6106 10.2089 99.7054 9.94341 99.895 9.75378C100.104 9.54518 100.379 9.44089 100.72 9.44089C101.042 9.44089 101.298 9.54518 101.488 9.75378C101.696 9.94341 101.801 10.2089 101.801 10.5502V11.5173C102.408 10.8157 103.157 10.2658 104.048 9.86755C104.958 9.46933 105.935 9.27022 106.978 9.27022C108.324 9.27022 109.528 9.55466 110.59 10.1236C111.652 10.6735 112.486 11.4889 113.093 12.5698C113.719 13.6507 114.032 14.9686 114.032 16.5236V23.9191C114.032 24.2225 113.928 24.4785 113.719 24.6871C113.51 24.8957 113.254 25 112.951 25C112.629 25 112.363 24.8957 112.155 24.6871C111.946 24.4785 111.842 24.2225 111.842 23.9191V16.5236C111.842 14.76 111.349 13.461 110.363 12.6267C109.395 11.7733 108.191 11.3467 106.75 11.3467C105.821 11.3467 104.977 11.5268 104.219 11.8871C103.479 12.2474 102.891 12.7404 102.455 13.3662C102.019 13.992 101.801 14.7031 101.801 15.4996V23.9191C101.801 24.2415 101.696 24.507 101.488 24.7156C101.298 24.9052 101.042 25 100.72 25ZM125.517 25.1422C124.018 25.1422 122.672 24.8009 121.477 24.1182C120.283 23.4166 119.335 22.4684 118.633 21.2738C117.95 20.0791 117.609 18.7233 117.609 17.2062C117.609 15.7081 117.941 14.3618 118.605 13.1671C119.287 11.9724 120.207 11.0338 121.364 10.3511C122.52 9.64948 123.829 9.29866 125.289 9.29866C126.56 9.29866 127.707 9.57363 128.731 10.1236C129.755 10.6545 130.58 11.3656 131.205 12.2569V3.89422C131.205 3.55289 131.31 3.2874 131.518 3.09777C131.727 2.88918 131.992 2.78489 132.315 2.78489C132.637 2.78489 132.903 2.88918 133.111 3.09777C133.32 3.2874 133.424 3.55289 133.424 3.89422V17.32C133.386 18.7991 133.016 20.136 132.315 21.3307C131.632 22.5064 130.693 23.4356 129.499 24.1182C128.323 24.8009 126.996 25.1422 125.517 25.1422ZM125.517 23.1511C126.616 23.1511 127.593 22.8951 128.446 22.3831C129.319 21.8521 130.001 21.141 130.494 20.2498C131.006 19.3585 131.262 18.344 131.262 17.2062C131.262 16.0874 131.006 15.0824 130.494 14.1911C130.001 13.2809 129.319 12.5698 128.446 12.0578C127.593 11.5458 126.616 11.2898 125.517 11.2898C124.436 11.2898 123.459 11.5458 122.587 12.0578C121.714 12.5698 121.022 13.2809 120.51 14.1911C119.998 15.0824 119.742 16.0874 119.742 17.2062C119.742 18.344 119.998 19.3585 120.51 20.2498C121.022 21.141 121.714 21.8521 122.587 22.3831C123.459 22.8951 124.436 23.1511 125.517 23.1511ZM141.475 25C140.337 25 139.398 24.5449 138.659 23.6347C137.919 22.7055 137.549 21.5203 137.549 20.0791V3.86578C137.549 3.5434 137.644 3.2874 137.834 3.09777C138.042 2.88918 138.308 2.78489 138.63 2.78489C138.953 2.78489 139.209 2.88918 139.398 3.09777C139.607 3.2874 139.711 3.5434 139.711 3.86578V20.0791C139.711 20.8945 139.872 21.5582 140.195 22.0702C140.536 22.5822 140.963 22.8382 141.475 22.8382H142.186C142.47 22.8382 142.698 22.9425 142.869 23.1511C143.039 23.3407 143.125 23.5967 143.125 23.9191C143.125 24.2415 143.001 24.507 142.755 24.7156C142.527 24.9052 142.224 25 141.845 25H141.475ZM148.393 31.7698C148.242 31.7698 148.071 31.7319 147.881 31.656C147.236 31.3716 147.056 30.9164 147.341 30.2907L150.185 24.0613L150.157 24.0329L143.814 10.8916C143.681 10.6071 143.662 10.3416 143.757 10.0951C143.852 9.84859 144.041 9.65896 144.326 9.52622C144.951 9.24178 145.407 9.40296 145.691 10.0098L151.238 21.7004L156.528 10.0382C156.813 9.43141 157.268 9.26074 157.894 9.52622C158.538 9.7917 158.719 10.2373 158.434 10.8631L149.218 31.1156C149.028 31.5517 148.754 31.7698 148.393 31.7698Z" fill="black"/>
<path fill-rule="evenodd" clip-rule="evenodd" d="M15.8464 2.96295H8.58307e-06L6.67216 9.63511H22.5185L15.8464 2.96295ZM6.67215 9.63511V25.4815L0 18.8093V2.96296L6.67215 9.63511Z" fill="#CCCCCC"/>
<path fill-rule="evenodd" clip-rule="evenodd" d="M6.67212 25.4815L22.5185 25.4815L15.8463 18.8094L-3.8147e-05 18.8094L6.67212 25.4815ZM15.8463 18.8093L15.8463 2.96298L22.5185 9.63514L22.5185 25.4815L15.8463 18.8093Z" fill="black"/>
</svg>
