<?xml version="1.0" encoding="utf-8"?><svg xmlns="http://www.w3.org/2000/svg" xmlns:xlink="http://www.w3.org/1999/xlink" width="1920" height="400" preserveAspectRatio="xMidYMid" viewBox="0 0 1920 400" style="z-index:1;margin-right:-2px;display:block;background-repeat-y:initial;background-repeat-x:initial;animation-play-state:paused" ><g transform="" style="animation-play-state:paused" ><linearGradient id="lg-0.3879905336343583" x1="0" x2="1" y1="0" y2="0" style="animation-play-state:paused" ><stop stop-color="#44b4f6" offset="0" style="animation-play-state:paused" ></stop>

  
<stop stop-color="#4d61f1" offset="1" style="animation-play-state:paused" ></stop></linearGradient>
<path d="M 0 0 L 0 249.417 Q 480 364.221 960 347.276 T 1920 313.101 L 1920 0 Z" fill="url(#lg-0.3879905336343583)" opacity="0.4" style="opacity:0.4;animation-play-state:paused" ></path>
<path d="M 0 0 L 0 281.588 Q 480 351.392 960 329.537 T 1920 256.167 L 1920 0 Z" fill="url(#lg-0.3879905336343583)" opacity="0.4" style="opacity:0.4;animation-play-state:paused" ></path>
<path d="M 0 0 L 0 328.224 Q 480 284.412 960 244.61 T 1920 281.39 L 1920 0 Z" fill="url(#lg-0.3879905336343583)" opacity="0.4" style="opacity:0.4;animation-play-state:paused" ></path>
<path d="M 0 0 L 0 247.935 Q 480 318.579 960 298.827 T 1920 234.409 L 1920 0 Z" fill="url(#lg-0.3879905336343583)" opacity="0.4" style="opacity:0.4;animation-play-state:paused" ></path>
<path d="M 0 0 L 0 305.301 Q 480 325.717 960 310.934 T 1920 307.552 L 1920 0 Z" fill="url(#lg-0.3879905336343583)" opacity="0.4" style="opacity:0.4;animation-play-state:paused" ></path></g></svg>