<?xml version="1.0" encoding="utf-8"?><svg xmlns="http://www.w3.org/2000/svg" xmlns:xlink="http://www.w3.org/1999/xlink" width="1920" height="880" preserveAspectRatio="xMidYMid" viewBox="0 0 1920 880" style="z-index:1;margin-right:-2px;display:block;background-repeat-y:initial;background-repeat-x:initial;animation-play-state:paused" ><g transform="" style="animation-play-state:paused" ><linearGradient id="lg-0.17352875310474447" x1="0" x2="1" y1="0" y2="0" style="animation-play-state:paused" ><stop stop-color="#44b4f6" offset="0" style="animation-play-state:paused" ></stop>

  
<stop stop-color="#4d61f1" offset="1" style="animation-play-state:paused" ></stop></linearGradient>
<path d="M 0 0 L 0 531.992 Q 480 486.027 960 473.643 T 1920 512.164 L 1920 0 Z" fill="url(#lg-0.17352875310474447)" opacity="0.4" style="opacity:0.4;animation-play-state:paused" ></path>
<path d="M 0 0 L 0 625.417 Q 480 773.833 960 744.965 T 1920 665.226 L 1920 0 Z" fill="url(#lg-0.17352875310474447)" opacity="0.4" style="opacity:0.4;animation-play-state:paused" ></path>
<path d="M 0 0 L 0 543.169 Q 480 634.435 960 602.363 T 1920 528.997 L 1920 0 Z" fill="url(#lg-0.17352875310474447)" opacity="0.4" style="opacity:0.4;animation-play-state:paused" ></path>
<path d="M 0 0 L 0 524.705 Q 480 680.095 960 657.113 T 1920 687.585 L 1920 0 Z" fill="url(#lg-0.17352875310474447)" opacity="0.4" style="opacity:0.4;animation-play-state:paused" ></path>
<path d="M 0 0 L 0 576.703 Q 480 588.344 960 556.997 T 1920 572.751 L 1920 0 Z" fill="url(#lg-0.17352875310474447)" opacity="0.4" style="opacity:0.4;animation-play-state:paused" ></path></g></svg>