<?xml version="1.0"?>
<svg xmlns="http://www.w3.org/2000/svg" xmlns:xlink="http://www.w3.org/1999/xlink" xmlns:svgjs="http://svgjs.com/svgjs" version="1.1" width="512" height="512" x="0" y="0" viewBox="0 0 512 512" style="enable-background:new 0 0 512 512" xml:space="preserve" class=""><g>
<g xmlns="http://www.w3.org/2000/svg">
	<g>
		<g>
			<rect width="32" height="32" fill="#03cbeb" data-original="#000000" style="" class=""/>
			<rect x="80" width="32" height="32" fill="#03cbeb" data-original="#000000" style="" class=""/>
			<rect x="160" width="32" height="32" fill="#03cbeb" data-original="#000000" style="" class=""/>
			<rect x="240" width="32" height="32" fill="#03cbeb" data-original="#000000" style="" class=""/>
			<rect x="320" width="32" height="32" fill="#03cbeb" data-original="#000000" style="" class=""/>
			<rect x="400" width="32" height="32" fill="#03cbeb" data-original="#000000" style="" class=""/>
			<rect x="480" width="32" height="32" fill="#03cbeb" data-original="#000000" style="" class=""/>
			<rect y="480" width="32" height="32" fill="#03cbeb" data-original="#000000" style="" class=""/>
			<rect x="80" y="480" width="32" height="32" fill="#03cbeb" data-original="#000000" style="" class=""/>
			<rect x="160" y="480" width="32" height="32" fill="#03cbeb" data-original="#000000" style="" class=""/>
			<rect x="240" y="480" width="32" height="32" fill="#03cbeb" data-original="#000000" style="" class=""/>
			<rect x="320" y="480" width="32" height="32" fill="#03cbeb" data-original="#000000" style="" class=""/>
			<rect x="400" y="480" width="32" height="32" fill="#03cbeb" data-original="#000000" style="" class=""/>
			<rect y="400" width="32" height="32" fill="#03cbeb" data-original="#000000" style="" class=""/>
			<rect y="320" width="32" height="32" fill="#03cbeb" data-original="#000000" style="" class=""/>
			<rect y="240" width="32" height="32" fill="#03cbeb" data-original="#000000" style="" class=""/>
			<rect y="160" width="32" height="32" fill="#03cbeb" data-original="#000000" style="" class=""/>
			<rect y="80" width="32" height="32" fill="#03cbeb" data-original="#000000" style="" class=""/>
			<rect x="480" y="400" width="32" height="32" fill="#03cbeb" data-original="#000000" style="" class=""/>
			<rect x="480" y="320" width="32" height="32" fill="#03cbeb" data-original="#000000" style="" class=""/>
			<rect x="480" y="240" width="32" height="32" fill="#03cbeb" data-original="#000000" style="" class=""/>
			<rect x="480" y="160" width="32" height="32" fill="#03cbeb" data-original="#000000" style="" class=""/>
			<rect x="480" y="80" width="32" height="32" fill="#03cbeb" data-original="#000000" style="" class=""/>
			<rect x="480" y="480" width="32" height="32" fill="#03cbeb" data-original="#000000" style="" class=""/>
			<path d="M96,416h320V96H96V416z M128,128h256v256H128V128z" fill="#03cbeb" data-original="#000000" style="" class=""/>
		</g>
	</g>
</g>
<g xmlns="http://www.w3.org/2000/svg">
</g>
<g xmlns="http://www.w3.org/2000/svg">
</g>
<g xmlns="http://www.w3.org/2000/svg">
</g>
<g xmlns="http://www.w3.org/2000/svg">
</g>
<g xmlns="http://www.w3.org/2000/svg">
</g>
<g xmlns="http://www.w3.org/2000/svg">
</g>
<g xmlns="http://www.w3.org/2000/svg">
</g>
<g xmlns="http://www.w3.org/2000/svg">
</g>
<g xmlns="http://www.w3.org/2000/svg">
</g>
<g xmlns="http://www.w3.org/2000/svg">
</g>
<g xmlns="http://www.w3.org/2000/svg">
</g>
<g xmlns="http://www.w3.org/2000/svg">
</g>
<g xmlns="http://www.w3.org/2000/svg">
</g>
<g xmlns="http://www.w3.org/2000/svg">
</g>
<g xmlns="http://www.w3.org/2000/svg">
</g>
</g></svg>
